<?xml version="1.0" encoding="UTF-8" standalone="no"?>
<!-- Created with Inkscape (http://www.inkscape.org/) -->

<svg
   width="72.074524mm"
   height="10.654411mm"
   viewBox="0 0 72.074524 10.654411"
   version="1.1"
   id="svg1"
   inkscape:version="1.4.3 (0d15f75, 2025-12-25)"
   sodipodi:docname="Logo-Full.svg"
   xmlns:inkscape="http://www.inkscape.org/namespaces/inkscape"
   xmlns:sodipodi="http://sodipodi.sourceforge.net/DTD/sodipodi-0.dtd"
   xmlns="http://www.w3.org/2000/svg"
   xmlns:svg="http://www.w3.org/2000/svg">
  <sodipodi:namedview
     id="namedview1"
     pagecolor="#505050"
     bordercolor="#eeeeee"
     borderopacity="1"
     inkscape:showpageshadow="0"
     inkscape:pageopacity="0"
     inkscape:pagecheckerboard="0"
     inkscape:deskcolor="#505050"
     inkscape:document-units="mm"
     inkscape:zoom="4"
     inkscape:cx="131.375"
     inkscape:cy="37.875"
     inkscape:window-width="1920"
     inkscape:window-height="991"
     inkscape:window-x="-9"
     inkscape:window-y="-9"
     inkscape:window-maximized="1"
     inkscape:current-layer="g6" />
  <defs
     id="defs1" />
  <g
     inkscape:label="Warstwa 1"
     inkscape:groupmode="layer"
     id="layer1"
     transform="translate(-36.172458,-77.309721)">
    <g
       id="g2">
      <g
         id="g4">
        <g
           id="g5">
          <g
             id="g6">
            <path
               style="font-size:14.1111px;font-family:Syne;-inkscape-font-specification:Syne;letter-spacing:0.396875px;fill:#000087;stroke:#000087;stroke-width:1.2;stroke-linecap:round;stroke-linejoin:round"
               d="m 45.083907,84.160937 q -0.141111,0.987777 -0.677333,1.707443 -0.536222,0.719666 -1.368777,1.114777 -0.818444,0.380999 -1.834443,0.380999 -0.945444,0 -1.749776,-0.324555 -0.804333,-0.338666 -1.41111,-0.959555 -0.592667,-0.620888 -0.931333,-1.495776 -0.338666,-0.874889 -0.338666,-1.947332 0,-1.086555 0.338666,-1.947332 0.338666,-0.874888 0.931333,-1.495777 0.606777,-0.620888 1.41111,-0.945443 0.804332,-0.338667 1.749776,-0.338667 1.03011,0 1.848554,0.395111 0.832555,0.381 1.368777,1.114777 0.536222,0.719666 0.677333,1.721554 h -1.044222 q -0.197555,-0.705555 -0.620888,-1.185332 -0.409222,-0.479778 -0.987777,-0.733777 -0.578555,-0.254 -1.241777,-0.254 -0.860777,0 -1.622776,0.423333 -0.747889,0.423333 -1.213555,1.241777 -0.465666,0.818443 -0.465666,2.003776 0,1.185332 0.465666,2.003776 0.465666,0.818444 1.213555,1.241777 0.761999,0.423333 1.622776,0.423333 0.663222,0 1.227666,-0.239889 0.578555,-0.254 0.987777,-0.733777 0.423333,-0.479777 0.620888,-1.171221 z"
               id="text1"
               aria-label="C" />
            <g
               id="g3">
              <ellipse
                 style="fill:#000087;fill-opacity:1;stroke:none;stroke-width:1.51963;stroke-linecap:round;stroke-linejoin:round;stroke-dasharray:none;stroke-opacity:1;paint-order:normal"
                 id="path5"
                 cx="41.176414"
                 cy="82.633171"
                 rx="1.9029588"
                 ry="1.928169" />
              <rect
                 style="fill:#000087;fill-opacity:1;stroke:none;stroke-width:0.845031;stroke-linecap:round;stroke-linejoin:round;stroke-dasharray:none;stroke-opacity:1;paint-order:normal"
                 id="rect6"
                 width="3.9930003"
                 height="0.86343396"
                 x="42.88319"
                 y="82.22747" />
              <path
                 sodipodi:type="star"
                 style="fill:#000087;fill-opacity:1;stroke:#000087;stroke-width:0.251945;stroke-linecap:round;stroke-linejoin:round;stroke-dasharray:none;stroke-opacity:1;paint-order:normal"
                 id="path6"
                 inkscape:flatsided="true"
                 sodipodi:sides="3"
                 sodipodi:cx="46.484715"
                 sodipodi:cy="80.852173"
                 sodipodi:r1="2.4410706"
                 sodipodi:r2="1.2205353"
                 sodipodi:arg1="2.0943951"
                 sodipodi:arg2="3.1415927"
                 inkscape:rounded="0"
                 inkscape:randomized="0"
                 d="m 45.264179,82.966202 0,-4.228058 3.661606,2.114029 z"
                 inkscape:transform-center-x="-0.50438331"
                 transform="matrix(0.82649597,0,0,1.298995,8.6628778,-22.366505)"
                 inkscape:transform-center-y="-1.3326822e-05" />
            </g>
            <path
               d="m 67.019219,80.167068 h 1.128888 v 7.05555 h -1.128888 z m 3.555997,-0.141111 q 0.564444,0 1.015999,0.169333 0.451556,0.169333 0.762,0.493889 0.310444,0.324555 0.479777,0.790221 0.169333,0.451556 0.169333,1.030111 v 4.713107 h -1.128888 v -4.430885 q 0,-0.818444 -0.380999,-1.227666 -0.381,-0.409222 -1.142999,-0.409222 -0.578556,0 -1.072444,0.296333 -0.493889,0.296333 -0.818444,0.818444 -0.310444,0.508 -0.381,1.185332 l -0.01411,-0.818443 q 0.07056,-0.592667 0.282222,-1.072444 0.225778,-0.479777 0.550333,-0.818444 0.338667,-0.352777 0.762,-0.536222 0.437444,-0.183444 0.917221,-0.183444 z m 9.653769,4.924774 h 1.058332 q -0.112888,0.691444 -0.507999,1.241777 -0.381,0.536222 -1.015999,0.860777 -0.620889,0.310444 -1.439333,0.310444 -0.987777,0 -1.777998,-0.465666 -0.790222,-0.479778 -1.255888,-1.298221 -0.451555,-0.832555 -0.451555,-1.890888 0,-1.058332 0.437444,-1.890887 0.451555,-0.832555 1.227665,-1.312333 0.776111,-0.479777 1.749777,-0.479777 1.03011,0 1.735665,0.465666 0.719666,0.451556 1.058333,1.340555 0.352777,0.874888 0.282222,2.158998 h -5.362218 q 0.07055,0.691444 0.380999,1.213555 0.310445,0.52211 0.818444,0.818444 0.508,0.282222 1.15711,0.282222 0.719666,0 1.213555,-0.366889 0.508,-0.381 0.691444,-0.987777 z M 78.295764,81.08429 q -0.874888,0 -1.467554,0.507999 -0.592666,0.508 -0.790222,1.382888 h 4.134552 q -0.05644,-0.931333 -0.606777,-1.41111 -0.536222,-0.479777 -1.269999,-0.479777 z m 11.149531,3.485441 q -0.09878,0.874888 -0.564444,1.509888 -0.451555,0.620888 -1.142999,0.959555 -0.691444,0.324555 -1.495777,0.324555 -0.90311,0 -1.693332,-0.437444 -0.790221,-0.437444 -1.28411,-1.255888 -0.479777,-0.832555 -0.479777,-1.961443 0,-1.128888 0.479777,-1.947332 0.493889,-0.832555 1.28411,-1.28411 0.790222,-0.451555 1.693332,-0.451555 0.804333,0 1.481666,0.338666 0.691444,0.338667 1.142999,0.959555 0.465666,0.620889 0.578555,1.481666 h -1.03011 Q 88.175296,82.001511 87.58263,81.549956 86.989963,81.08429 86.242075,81.08429 q -0.606777,0 -1.142999,0.310444 -0.536222,0.310444 -0.860777,0.90311 -0.324555,0.578555 -0.324555,1.41111 0,0.818444 0.324555,1.41111 0.324555,0.578555 0.846666,0.888999 0.536222,0.296334 1.15711,0.296334 0.860777,0 1.396999,-0.451556 0.550333,-0.465666 0.790222,-1.28411 z m 1.342313,-4.402663 h 4.148663 v 1.058333 h -4.148663 z m 1.509888,-1.834443 h 1.128888 v 8.889993 h -1.128888 z m 7.2972,9.031104 q -0.90311,0 -1.693332,-0.437444 -0.790221,-0.437444 -1.28411,-1.255888 -0.479777,-0.832555 -0.479777,-1.961443 0,-1.128888 0.479777,-1.947332 0.493889,-0.832555 1.28411,-1.28411 0.790222,-0.451555 1.693332,-0.451555 0.903114,0 1.679224,0.451555 0.79022,0.451555 1.27,1.28411 0.47977,0.818444 0.47977,1.947332 0,1.128888 -0.47977,1.961443 -0.47978,0.818444 -1.27,1.255888 -0.77611,0.437444 -1.679224,0.437444 z m 0,-1.058332 q 0.592664,0 1.114774,-0.296334 0.52211,-0.296333 0.84667,-0.874888 0.33867,-0.592666 0.33867,-1.425221 0,-0.832555 -0.33867,-1.41111 -0.32456,-0.592666 -0.84667,-0.90311 -0.52211,-0.310444 -1.114774,-0.310444 -0.592666,0 -1.128888,0.310444 -0.52211,0.296333 -0.860777,0.888999 -0.338666,0.578555 -0.338666,1.425221 0,0.832555 0.324555,1.425221 0.338666,0.578555 0.874888,0.874888 0.536222,0.296334 1.128888,0.296334 z m 5.265214,-6.138329 h 1.12888 v 7.05555 h -1.12888 z m 3.38666,1.058333 q -0.71967,0 -1.21355,0.366888 -0.47978,0.352778 -0.762,0.874888 -0.26812,0.508 -0.35278,0.987777 l -0.0141,-0.818443 q 0,-0.127 0.0564,-0.423333 0.0564,-0.296334 0.21167,-0.663222 0.15522,-0.381 0.40922,-0.719666 0.26811,-0.352778 0.67733,-0.578555 0.40922,-0.225778 0.98778,-0.225778 z"
               id="text2"
               style="font-size:14.1111px;font-family:Syne;-inkscape-font-specification:Syne;letter-spacing:0.396875px;stroke-width:0.2;stroke-linecap:round;stroke-linejoin:round"
               aria-label="nector" />
            <path
               d="m 53.539915,87.364385 q -0.90311,0 -1.693332,-0.437444 -0.790221,-0.437444 -1.28411,-1.255888 -0.479777,-0.832555 -0.479777,-1.961443 0,-1.128888 0.479777,-1.947332 0.493889,-0.832554 1.28411,-1.28411 0.790222,-0.451555 1.693332,-0.451555 0.903111,0 1.679221,0.451555 0.790222,0.451556 1.269999,1.28411 0.479778,0.818444 0.479778,1.947332 0,1.128888 -0.479778,1.961443 -0.479777,0.818444 -1.269999,1.255888 -0.77611,0.437444 -1.679221,0.437444 z m 0,-1.058332 q 0.592666,0 1.114777,-0.296333 0.522111,-0.296333 0.846666,-0.874889 0.338667,-0.592666 0.338667,-1.425221 0,-0.832555 -0.338667,-1.41111 -0.324555,-0.592666 -0.846666,-0.90311 -0.522111,-0.310444 -1.114777,-0.310444 -0.592666,0 -1.128888,0.310444 -0.52211,0.296333 -0.860777,0.888999 -0.338666,0.578555 -0.338666,1.425221 0,0.832555 0.324555,1.425221 0.338666,0.578556 0.874888,0.874889 0.536222,0.296333 1.128888,0.296333 z m 5.265209,-6.138329 h 1.128888 v 7.05555 h -1.128888 z m 3.555997,-0.141111 q 0.564444,0 1.015999,0.169333 0.451555,0.169334 0.762,0.493889 0.310444,0.324555 0.479777,0.790221 0.169333,0.451556 0.169333,1.030111 v 4.713107 h -1.128888 v -4.430885 q 0,-0.818444 -0.380999,-1.227666 -0.381,-0.409222 -1.143,-0.409222 -0.578555,0 -1.072443,0.296333 -0.493889,0.296333 -0.818444,0.818444 -0.310444,0.508 -0.381,1.185332 l -0.01411,-0.818443 q 0.07056,-0.592667 0.282222,-1.072444 0.225778,-0.479777 0.550333,-0.818444 0.338667,-0.352777 0.762,-0.536222 0.437444,-0.183444 0.917221,-0.183444 z"
               id="text3"
               style="font-size:14.1111px;font-family:Syne;-inkscape-font-specification:Syne;letter-spacing:0.396875px;fill:#000087;stroke:#000087;stroke-width:1.2;stroke-linecap:round;stroke-linejoin:round"
               aria-label="on" />
          </g>
        </g>
      </g>
    </g>
  </g>
</svg>
