<?xml version="1.0" encoding="UTF-8" standalone="no"?>
<!-- Created with Inkscape (http://www.inkscape.org/) -->

<svg
   width="13.1mm"
   height="13.1mm"
   viewBox="0 0 13.1 13.1"
   version="1.1"
   id="svg1"
   inkscape:version="1.4.3 (0d15f75, 2025-12-25)"
   sodipodi:docname="Logo-Square.svg"
   xmlns:inkscape="http://www.inkscape.org/namespaces/inkscape"
   xmlns:sodipodi="http://sodipodi.sourceforge.net/DTD/sodipodi-0.dtd"
   xmlns="http://www.w3.org/2000/svg"
   xmlns:svg="http://www.w3.org/2000/svg">
  <sodipodi:namedview
     id="namedview1"
     pagecolor="#505050"
     bordercolor="#eeeeee"
     borderopacity="1"
     inkscape:showpageshadow="0"
     inkscape:pageopacity="0"
     inkscape:pagecheckerboard="0"
     inkscape:deskcolor="#505050"
     inkscape:document-units="mm"
     inkscape:zoom="11.313708"
     inkscape:cx="22.936777"
     inkscape:cy="24.439379"
     inkscape:window-width="1920"
     inkscape:window-height="991"
     inkscape:window-x="-9"
     inkscape:window-y="-9"
     inkscape:window-maximized="1"
     inkscape:current-layer="layer1" />
  <defs
     id="defs1" />
  <g
     inkscape:label="Warstwa 1"
     inkscape:groupmode="layer"
     id="layer1"
     transform="translate(-36.172458,-77.309721)">
    <g
       id="g2"
       transform="translate(0.05,1.2)">
      <g
         id="g3">
        <path
           style="font-size:14.1111px;font-family:Syne;-inkscape-font-specification:Syne;letter-spacing:0.396875px;fill:#000087;stroke:#000087;stroke-width:1.2;stroke-linecap:round;stroke-linejoin:round"
           d="m 45.083907,84.160937 q -0.141111,0.987777 -0.677333,1.707443 -0.536222,0.719666 -1.368777,1.114777 -0.818444,0.380999 -1.834443,0.380999 -0.945444,0 -1.749776,-0.324555 -0.804333,-0.338666 -1.41111,-0.959555 -0.592667,-0.620888 -0.931333,-1.495776 -0.338666,-0.874889 -0.338666,-1.947332 0,-1.086555 0.338666,-1.947332 0.338666,-0.874888 0.931333,-1.495777 0.606777,-0.620888 1.41111,-0.945443 0.804332,-0.338667 1.749776,-0.338667 1.03011,0 1.848554,0.395111 0.832555,0.381 1.368777,1.114777 0.536222,0.719666 0.677333,1.721554 h -1.044222 q -0.197555,-0.705555 -0.620888,-1.185332 -0.409222,-0.479778 -0.987777,-0.733777 -0.578555,-0.254 -1.241777,-0.254 -0.860777,0 -1.622776,0.423333 -0.747889,0.423333 -1.213555,1.241777 -0.465666,0.818443 -0.465666,2.003776 0,1.185332 0.465666,2.003776 0.465666,0.818444 1.213555,1.241777 0.761999,0.423333 1.622776,0.423333 0.663222,0 1.227666,-0.239889 0.578555,-0.254 0.987777,-0.733777 0.423333,-0.479777 0.620888,-1.171221 z"
           id="text1"
           aria-label="C " />
        <g
           id="g1">
          <ellipse
             style="fill:#000087;fill-opacity:1;stroke:none;stroke-width:1.51963;stroke-linecap:round;stroke-linejoin:round;stroke-dasharray:none;stroke-opacity:1;paint-order:normal"
             id="path5"
             cx="41.176414"
             cy="82.633171"
             rx="1.9029588"
             ry="1.928169" />
          <rect
             style="fill:#000087;fill-opacity:1;stroke:none;stroke-width:0.845031;stroke-linecap:round;stroke-linejoin:round;stroke-dasharray:none;stroke-opacity:1;paint-order:normal"
             id="rect6"
             width="3.9930003"
             height="0.86343396"
             x="42.88319"
             y="82.22747" />
          <path
             sodipodi:type="star"
             style="fill:#000087;fill-opacity:1;stroke:#000087;stroke-width:0.251945;stroke-linecap:round;stroke-linejoin:round;stroke-dasharray:none;stroke-opacity:1;paint-order:normal"
             id="path6"
             inkscape:flatsided="true"
             sodipodi:sides="3"
             sodipodi:cx="46.484715"
             sodipodi:cy="80.852173"
             sodipodi:r1="2.4410706"
             sodipodi:r2="1.2205353"
             sodipodi:arg1="2.0943951"
             sodipodi:arg2="3.1415927"
             inkscape:rounded="0"
             inkscape:randomized="0"
             d="m 45.264179,82.966202 0,-4.228058 3.661606,2.114029 z"
             inkscape:transform-center-x="-0.50438331"
             transform="matrix(0.82649597,0,0,1.298995,8.6628778,-22.366505)"
             inkscape:transform-center-y="-1.3326822e-05" />
        </g>
      </g>
    </g>
  </g>
</svg>
