<?xml version="1.0" encoding="UTF-8" standalone="no"?>
<!-- Uploaded to: SVG Repo, www.svgrepo.com, Generator: SVG Repo Mixer Tools -->

<svg
   width="800px"
   height="800px"
   viewBox="0 0 32 32"
   version="1.1"
   id="svg1"
   sodipodi:docname="NS+.svg"
   inkscape:version="1.4.3 (0d15f75, 2025-12-25)"
   xmlns:inkscape="http://www.inkscape.org/namespaces/inkscape"
   xmlns:sodipodi="http://sodipodi.sourceforge.net/DTD/sodipodi-0.dtd"
   xmlns="http://www.w3.org/2000/svg"
   xmlns:svg="http://www.w3.org/2000/svg"
   xmlns:rdf="http://www.w3.org/1999/02/22-rdf-syntax-ns#"
   xmlns:cc="http://creativecommons.org/ns#"
   xmlns:dc="http://purl.org/dc/elements/1.1/"
   xmlns:sketch="http://www.bohemiancoding.com/sketch/ns">
  <sodipodi:namedview
     id="namedview1"
     pagecolor="#ffffff"
     bordercolor="#000000"
     borderopacity="0.25"
     inkscape:showpageshadow="2"
     inkscape:pageopacity="0.0"
     inkscape:pagecheckerboard="0"
     inkscape:deskcolor="#d1d1d1"
     inkscape:zoom="0.68324193"
     inkscape:cx="363.70719"
     inkscape:cy="435.4241"
     inkscape:window-width="1920"
     inkscape:window-height="991"
     inkscape:window-x="-9"
     inkscape:window-y="-9"
     inkscape:window-maximized="1"
     inkscape:current-layer="Page-1" />
  <title
     id="title1">plus-square</title>
  <desc
     id="desc1">Created with Sketch Beta.</desc>
  <defs
     id="defs1" />
  <g
     id="Page-1"
     stroke="none"
     stroke-width="1"
     fill="none"
     fill-rule="evenodd"
     sketch:type="MSPage">
    <path
       d="m 30,28 c 0,1.1 -0.896,2 -2,2 H 4 C 2.896,30 2,29.1 2,28 V 4 C 2,2.9 2.896,2 4,2 h 24 c 1.104,0 2,0.9 2,2 z M 28,0 H 4 C 1.791,0 0,1.79 0,4 v 24 c 0,2.21 1.791,4 4,4 h 24 c 2.209,0 4,-1.79 4,-4 V 4 C 32,1.79 30.209,0 28,0 Z"
       id="plus-square"
       sketch:type="MSShapeGroup"
       style="fill:#000000;fill-opacity:1;stroke:none;stroke-opacity:1"
       sodipodi:nodetypes="ssssssssssssssssss" />
    <path
       d="m 14.523202,20.963997 -0.4752,0.1512 V 8.9759967 h 1.728 V 23.015997 h -1.728 l -9.1152004,-11.9664 0.4752,-0.1512 v 12.1176 h -1.728 V 8.9759967 h 1.728 z m 3.758385,-2.5056 h 1.5552 q 0.0648,0.9072 0.54,1.62 0.4752,0.7128 1.296,1.1232 0.8424,0.4104 1.9656,0.4104 0.972,0 1.62,-0.2808 0.6696,-0.3024 0.9936,-0.8208 0.3456,-0.5184 0.3456,-1.2096 0,-0.7128 -0.3456,-1.1448 -0.3456,-0.432 -0.9936,-0.7344 -0.648,-0.3024 -1.5336,-0.5832 -0.8424,-0.2592 -1.7064,-0.6048 -0.864,-0.3456 -1.62,-0.8424 -0.7344,-0.4968 -1.188,-1.188 -0.4536,-0.7128 -0.4536,-1.7064 0,-0.972 0.5184,-1.8144 0.54,-0.8640003 1.5552,-1.3824003 1.0368,-0.54 2.484,-0.54 2.268,0 3.3912,1.2312 1.1232,1.2312003 1.08,3.2616003 h -1.5552 q -0.0432,-1.5336 -0.864,-2.2032 -0.8208,-0.6696 -2.1384,-0.6696 -1.1016,0 -1.9224,0.5184 -0.8208,0.4968 -0.8208,1.5768 0,0.4752 0.1728,0.8424 0.1944,0.3456 0.6048,0.648 0.432,0.3024 1.1448,0.6048 0.7344,0.2808 1.7928,0.6264 0.6912,0.216 1.404,0.5184 0.7344,0.3024 1.3392,0.756 0.6264,0.4536 0.9936,1.1664 0.388801,0.6912 0.388801,1.7496 0,1.0152 -0.496801,1.9008 -0.4752,0.864 -1.512,1.404 -1.0152,0.54 -2.6352,0.54 -1.3824,0 -2.376,-0.3672 -0.972,-0.3888 -1.5984,-0.9936 -0.6264,-0.6048 -0.972,-1.2528 -0.324,-0.6696 -0.432,-1.2528 -0.108,-0.5832 -0.0216,-0.9072 z"
       id="text1"
       style="font-size:21.6px;font-family:Syne;-inkscape-font-specification:Syne;fill:#000000;stroke-width:0.04"
       aria-label="NS" />
  </g>
  <metadata
     id="metadata1">
    <rdf:RDF>
      <cc:Work
         rdf:about="">
        <dc:title>plus-square</dc:title>
      </cc:Work>
    </rdf:RDF>
  </metadata>
</svg>
