<?xml version="1.0" encoding="UTF-8" standalone="no"?>
<!-- Uploaded to: SVG Repo, www.svgrepo.com, Generator: SVG Repo Mixer Tools -->

<svg
   width="800px"
   height="800px"
   viewBox="0 0 32 32"
   version="1.1"
   id="svg1"
   sodipodi:docname="V+.svg"
   inkscape:version="1.4.3 (0d15f75, 2025-12-25)"
   xmlns:inkscape="http://www.inkscape.org/namespaces/inkscape"
   xmlns:sodipodi="http://sodipodi.sourceforge.net/DTD/sodipodi-0.dtd"
   xmlns="http://www.w3.org/2000/svg"
   xmlns:svg="http://www.w3.org/2000/svg"
   xmlns:rdf="http://www.w3.org/1999/02/22-rdf-syntax-ns#"
   xmlns:cc="http://creativecommons.org/ns#"
   xmlns:dc="http://purl.org/dc/elements/1.1/"
   xmlns:sketch="http://www.bohemiancoding.com/sketch/ns">
  <sodipodi:namedview
     id="namedview1"
     pagecolor="#ffffff"
     bordercolor="#000000"
     borderopacity="0.25"
     inkscape:showpageshadow="2"
     inkscape:pageopacity="0.0"
     inkscape:pagecheckerboard="0"
     inkscape:deskcolor="#d1d1d1"
     inkscape:zoom="0.68324193"
     inkscape:cx="426.64244"
     inkscape:cy="395.90662"
     inkscape:window-width="1920"
     inkscape:window-height="991"
     inkscape:window-x="-9"
     inkscape:window-y="-9"
     inkscape:window-maximized="1"
     inkscape:current-layer="Page-1" />
  <title
     id="title1">plus-square</title>
  <desc
     id="desc1">Created with Sketch Beta.</desc>
  <defs
     id="defs1" />
  <g
     id="Page-1"
     stroke="none"
     stroke-width="1"
     fill="none"
     fill-rule="evenodd"
     sketch:type="MSPage">
    <path
       d="m 30,28 c 0,1.1 -0.896,2 -2,2 H 4 C 2.896,30 2,29.1 2,28 V 4 C 2,2.9 2.896,2 4,2 h 24 c 1.104,0 2,0.9 2,2 z M 28,0 H 4 C 1.791,0 0,1.79 0,4 v 24 c 0,2.21 1.791,4 4,4 h 24 c 2.209,0 4,-1.79 4,-4 V 4 C 32,1.79 30.209,0 28,0 Z"
       id="plus-square"
       sketch:type="MSShapeGroup"
       style="fill:#000000;fill-opacity:1;stroke:none;stroke-opacity:1"
       sodipodi:nodetypes="ssssssssssssssssss" />
    <path
       d="M 15.015989,23.799992 9.2799887,8.1999916 h 2.0640003 l 4.968,13.6800004 h -0.576 l 4.968,-13.6800004 h 2.016 l -5.688,15.6000004 z"
       id="text1"
       style="font-size:24px;font-family:Syne;-inkscape-font-specification:Syne;fill:#000000;stroke-width:0.04"
       aria-label="V" />
  </g>
  <metadata
     id="metadata1">
    <rdf:RDF>
      <cc:Work
         rdf:about="">
        <dc:title>plus-square</dc:title>
      </cc:Work>
    </rdf:RDF>
  </metadata>
</svg>
